<?xml version="1.0" encoding="UTF-8"?>
<svg id="Capa_1" data-name="Capa 1" xmlns="http://www.w3.org/2000/svg" viewBox="0 0 188.54 130.06">
  <defs>
    <style>
      .cls-1 {
        fill: #fff;
      }

      .cls-2 {
        fill: #8e97c0;
      }

      .cls-3 {
        fill: #180f0f;
      }

      .cls-4 {
        fill: #1e1618;
      }

      .cls-5 {
        fill: #231e20;
      }

      .cls-6 {
        fill: #070506;
      }

      .cls-7 {
        fill: #110f10;
      }

      .cls-8 {
        fill: #1a429a;
      }

      .cls-9 {
        fill: #261f21;
      }
    </style>
  </defs>
  <path class="cls-1" d="M.92,69.07c-.04-8.13,1.08-16.11,4.26-23.82C11.82,29.12,25.7,17.85,41.66,11.51c12.63-5.01,26.17-7.27,39.69-8.08s27.58-1.93,40.88-.68c16.68,1.57,34.61,6.52,46.2,19.39,14.44,16.03,14.77,43.79,7.71,63.21-5.97,16.43-18.63,28.99-34.51,36.05-17.6,7.82-37.03,9.03-56.02,8.57-16.83-.41-34.15-2.11-49.83-8.62-6.15-2.55-11.99-5.87-17.15-10.1C8.06,102.61,2.41,90.34,1.28,76.88c-.22-2.62-.35-5.22-.36-7.81Z"/>
  <path class="cls-8" d="M188.54,69.57c.02-4.93-.84-9.95-2.74-14.91-5.97-15.62-18.72-27.4-33.33-35-14.52-7.55-30.63-11.4-46.79-13.41s-30.69-.21-46.45,4.06C39.63,15.62,19.21,25.81,9.92,44.9c-5.74,11.79-5.98,21.87-1.56,33.64,5.97,15.89,18.49,28.17,33.35,36,21.08,11.1,46,15.04,69.66,13.25,18.75-1.42,38.38-5.91,53.89-17.02,13.68-9.8,23.2-25.06,23.28-41.18Z"/>
  <path class="cls-2" d="M105,122.07s-23,5-40,4S5,120.07,3,78.07c0,0-.16-57.91,93.92-74.96,0,0,81.08-7.04,82.08,47.96,0,0-2,23-12,32,18.96-17.07,17.29-45.54,.33-62.82C153.29,5.95,132.62,.82,113.17,.07,61-1.93,0,37.33,0,77.2s43.43,49.87,72.22,49.87c0,0,15.78,0,32.78-5Z"/>
  <g>
    <path class="cls-9" d="M64.58,47.06s-2.3-12.3-17.65-12.3-18.35,11.61-18.35,18.3c0,3.64-1.07,13.64,5.99,18.91,4.58,3.41,10.04,3.03,12.01,2.79,1.02,.17,2.41,.27,4,0,3.51-.58,5.82-2.57,6.78-3.5,.07,1.17,.14,2.33,.22,3.5h7v-22.48h-18v8.48h9s-2,6.26-9,6.13c-7-.13-9.09-7.06-9.04-11.59,.03-3.25,.55-7.87,3.78-10.38,.56-.44,2.55-1.91,5.26-1.77,.7,.04,2.95,.16,4.42,1.93,.61,.73,.87,1.5,1,2,4.19,0,8.39-.01,12.58-.02Z"/>
    <path class="cls-1" d="M63,45.38s-2.3-12.3-17.65-12.3-18.35,11.61-18.35,18.3c0,3.64-1.07,13.64,5.99,18.91,4.58,3.41,10.04,3.03,12.01,2.79,1.02,.17,2.41,.27,4,0,3.51-.58,5.82-2.57,6.78-3.5,.07,1.17,.14,2.33,.22,3.5h7v-22.48h-18v8.48h9s-2,6.26-9,6.13-9.09-7.06-9.04-11.59c.04-4.54,1.04-11.75,9.04-12.14,8-.39,7,3.61,7,3.61l11,.3Z"/>
  </g>
  <g>
    <path class="cls-5" d="M66.04,44.54v29.05h9.98v-14.99s1.02-6.85,10.02-6.92v-7.14l-6,.07s-4,2.89-4,3.95v-4.01h-10Z"/>
    <path class="cls-1" d="M64,44.01v29.05h9.98v-14.99s1.02-6.85,10.02-6.92v-7.14l-6,.07s-4,2.89-4,3.95v-4.01h-10Z"/>
  </g>
  <g>
    <path class="cls-3" d="M110.04,54.69s-3-9.13-14-9.13c0,0-14,.92-14,14.46s10,14.54,14,14.54,13-2,13-8h-9s-6,6-10-3h20v-8.87Zm-20,2.87s1-6,6-6,6,6,6,6h-12Z"/>
    <path class="cls-1" d="M108,53.2s-3-9.13-14-9.13c0,0-14,.92-14,14.46s10,14.54,14,14.54,13-2,13-8h-9s-6,6-10-3h20v-8.87Zm-20,2.87s1-6,6-6,6,6,6,6h-12Z"/>
  </g>
  <g>
    <path class="cls-7" d="M129.04,46.53v3.07s-1.85-3-7.92-3-12.08,6.3-12.08,12.65,.54,16.35,12.27,16.35c0,0,7.73,0,7.73-3v2.99h8v-29.05h-8Zm-6,23.07c-3.31,0-6-3.81-6-8.5s2.69-8.5,6-8.5,6,3.81,6,8.5-2.69,8.5-6,8.5Z"/>
    <path class="cls-1" d="M127,44.01v3.07s-1.85-3-7.92-3-12.08,6.3-12.08,12.65,.54,16.35,12.27,16.35c0,0,7.73,0,7.73-3v2.99h8v-29.05h-8Zm-6,23.07c-3.31,0-6-3.81-6-8.5s2.69-8.5,6-8.5,6,3.81,6,8.5-2.69,8.5-6,8.5Z"/>
  </g>
  <g>
    <path class="cls-6" d="M142,36.07l.55,10.42h-5.01c-.51,2.19-1.03,4.38-1.54,6.58l6.55-.51c-.85,5.5-1.7,11.01-2.55,16.51,.38,.79,2.65,5.28,8,7,4.66,1.5,8.57-.08,9.54-.51,.15-3.16,.3-6.33,.46-9.49-1.64,1.65-2.98,2.32-4,2-2.19-.68-2.97-5.85-2.35-15.51h5.89c.15-2.83,.3-5.66,.46-8.49h-6v-8h-10Z"/>
    <path class="cls-1" d="M140.01,36.07v7.93h-5.01v6.07h5.01v18.1s1.99,4.9,8.99,4.9,6,0,6,0l.05-6.96s-6.05,.96-6.05-1.04,.11-15,.11-15h5.89v-6h-6v-8h-8.99Z"/>
  </g>
  <g>
    <polygon points="60 75.07 67.98 101.07 77 101.07 85 75.07 77 75.07 72.5 94.02 67 75.07 60 75.07"/>
    <polygon class="cls-1" points="57 74.07 64.98 100.07 74 100.07 82 74.07 74 74.07 69.5 93.02 64 74.07 57 74.07"/>
  </g>
  <g>
    <path class="cls-4" d="M97,81.07v3s-1-3-5.66-3-9.34,5-9.34,11.6,5,9.4,9.04,9.4,5.87-1.87,5.87-1.87v1.87h6.09v-21h-6Zm-4.5,16c-2.49,0-4.5-2.46-4.5-5.5s2.01-5.5,4.5-5.5,4.5,2.46,4.5,5.5-2.01,5.5-4.5,5.5Z"/>
    <path class="cls-1" d="M95,79.07v3s-1-3-5.66-3-9.34,5-9.34,11.6,5,9.4,9.04,9.4,5.87-1.87,5.87-1.87v1.87h6.09v-21h-6Zm-4.5,16c-2.49,0-4.5-2.46-4.5-5.5s2.01-5.5,4.5-5.5,4.5,2.46,4.5,5.5-2.01,5.5-4.5,5.5Z"/>
  </g>
  <g>
    <rect x="103" y="73.07" width="9" height="29"/>
    <rect class="cls-1" x="103" y="72.07" width="7" height="28"/>
  </g>
  <g>
    <path d="M114,81.07v16s1.01,5,8.01,5c0,0,5.99,0,5.99-3v3h6s0-21,0-21c0,0-7.05,0-7.05,0v12.06c0,1.42-.83,2.79-2.01,3.59-1.27,.86-2.57,.29-3.53-.72-.65-.67-1.4-1.53-1.4-2.48,0-1.71,0-3.43,0-5.14,0-.48,0-7.3,0-7.3h-6Z"/>
    <path class="cls-1" d="M112,79.07v16s1.01,5,8.01,5c0,0,5.99,0,5.99-3v3h6s0-21,0-21c0,0-7.05,0-7.05,0v12.06c0,1.42-.83,2.79-2.01,3.59-1.27,.86-2.57,.29-3.53-.72-.65-.67-1.4-1.53-1.4-2.48,0-1.71,0-3.43,0-5.14,0-.48,0-7.3,0-7.3h-6Z"/>
  </g>
  <g>
    <path d="M157,92.07v-5s-1.95-7-9.98-7c0,0-11.02,0-11.02,10.5s6.05,10.5,11.02,10.5,9.98-3.01,9.98-7.01h-7s0,2.96-3.5,2.98c-3.5,.02-4.5-2.98-4.5-2.98v-2h15Zm-10.5-7.01c3.5,0,3.5,3.01,3.5,3.01h-7s0-3,3.5-3.01Z"/>
    <path class="cls-1" d="M155,91.07v-5s-1.95-7-9.98-7c0,0-11.02,0-11.02,10.5s6.05,10.5,11.02,10.5,9.98-3.01,9.98-7.01h-7s0,2.96-3.5,2.98c-3.5,.02-4.5-2.98-4.5-2.98v-2h15Zm-10.5-7.01c3.5,0,3.5,3.01,3.5,3.01h-7s0-3,3.5-3.01Z"/>
  </g>
</svg>